<?xml version="1.0" standalone="no"?>
<!DOCTYPE svg PUBLIC "-//W3C//DTD SVG 20010904//EN"
 "http://www.w3.org/TR/2001/REC-SVG-20010904/DTD/svg10.dtd">
<svg version="1.0" xmlns="http://www.w3.org/2000/svg"
 width="2672.000000pt" height="2672.000000pt" viewBox="0 0 2672.000000 2672.000000"
 preserveAspectRatio="xMidYMid meet">
<metadata>
Created by potrace 1.14, written by Peter Selinger 2001-2017
</metadata>
<g transform="translate(0.000000,2672.000000) scale(0.100000,-0.100000)"
fill="#000000" stroke="none">
<path d="M1834 23001 c-2 -2 -4 -4223 -4 -9380 l0 -9376 1912 3 c1052 1 1916
6 1920 10 7 7 21 79 59 302 30 182 -8 456 -82 578 -26 43 -94 128 -124 155
-86 79 -269 132 -513 147 -167 11 -1231 -3 -1575 -21 -125 -6 -230 -9 -233 -6
-7 6 -7 16438 0 16444 3 3 81 0 173 -6 319 -21 679 -31 1128 -31 632 -1 728
10 944 102 208 89 313 350 283 707 -11 134 -47 349 -61 363 -7 8 -3819 16
-3827 9z"/>
<path d="M21524 22966 c-3 -21 -14 -57 -24 -80 -45 -102 -59 -443 -25 -591 27
-120 68 -199 141 -271 59 -57 82 -72 189 -119 22 -9 54 -24 70 -32 67 -33 330
-52 710 -53 366 0 991 14 1255 29 80 5 148 5 153 1 4 -3 7 -1905 7 -4226 0
-2320 5 -5436 11 -6924 6 -1595 7 -3236 2 -4000 l-8 -1295 -60 2 c-33 1 -184
7 -335 13 -151 6 -537 14 -857 17 -669 6 -678 6 -906 -63 -91 -28 -126 -45
-185 -90 -66 -50 -142 -158 -142 -201 0 -10 -9 -43 -21 -73 -17 -43 -22 -86
-26 -200 -6 -155 3 -252 39 -442 l23 -118 1911 0 1911 0 6 1037 c9 1340 9
11308 0 14923 l-6 2795 -1913 0 -1913 0 -7 -39z"/>
<path d="M5350 21100 c-198 -32 -339 -63 -377 -83 -15 -8 -57 -29 -93 -47 -81
-39 -124 -66 -181 -109 -90 -70 -191 -192 -212 -255 -6 -17 -18 -49 -28 -72
-51 -118 -54 -139 -54 -364 1 -240 -3 -221 87 -407 36 -73 59 -104 138 -184
107 -108 152 -144 225 -181 28 -14 64 -32 80 -41 71 -39 116 -56 162 -62 26
-4 62 -16 80 -26 37 -23 108 -45 177 -55 27 -4 81 -21 120 -39 39 -18 82 -35
96 -40 47 -13 178 -106 204 -144 40 -57 35 -96 -17 -146 -24 -22 -65 -52 -93
-65 -47 -23 -57 -24 -259 -24 -200 0 -217 2 -360 33 -157 35 -229 55 -331 93
-75 27 -87 21 -104 -55 -7 -29 -21 -69 -31 -89 -11 -21 -19 -49 -19 -63 0 -15
-8 -47 -19 -73 -50 -124 -61 -156 -61 -176 0 -12 -4 -26 -9 -32 -5 -5 -19 -37
-31 -72 -21 -58 -22 -64 -6 -81 21 -23 87 -55 151 -74 28 -8 82 -26 120 -40
154 -57 462 -99 735 -101 196 -1 428 18 475 39 16 8 50 19 75 25 70 18 126 38
167 60 21 11 43 20 50 20 6 0 31 15 55 33 24 19 51 38 60 43 35 20 129 108
166 157 56 72 109 168 132 239 49 151 62 436 26 578 -38 149 -115 284 -225
395 -147 148 -327 244 -616 330 -60 18 -121 38 -135 43 -14 6 -63 20 -109 33
-130 35 -234 96 -265 156 -19 38 -21 103 -3 125 6 9 41 31 76 50 l65 33 175
-1 c160 -1 191 -5 341 -36 91 -20 197 -48 235 -63 84 -33 146 -42 162 -23 6 7
23 56 38 108 15 52 32 104 38 115 5 11 14 33 18 50 4 16 26 80 49 140 76 204
73 194 59 211 -20 24 -54 38 -234 97 -165 53 -299 81 -520 107 -125 15 -379
21 -445 10z"/>
<path d="M8965 21041 c-3 -2 -2 -261 1 -575 3 -314 2 -576 -3 -583 -6 -8 -132
-12 -461 -15 l-452 -3 0 588 0 587 -485 0 -485 0 0 -1481 0 -1482 68 6 c37 4
255 7 485 7 l418 0 -1 583 -2 582 450 0 c248 0 453 -3 457 -7 4 -4 10 -267 12
-585 3 -318 6 -579 7 -580 0 0 220 1 487 4 l486 6 0 1473 0 1474 -490 2 c-269
2 -490 1 -492 -1z"/>
<path d="M11684 21043 l-641 -3 -6 -63 c-3 -34 -22 -114 -41 -177 -20 -63 -36
-122 -36 -130 0 -8 -14 -56 -31 -105 -17 -50 -39 -124 -49 -165 -24 -98 -46
-176 -64 -225 -8 -22 -17 -61 -20 -87 -3 -26 -19 -87 -36 -135 -16 -49 -34
-109 -39 -134 -5 -24 -25 -100 -44 -169 -20 -69 -42 -152 -50 -185 -9 -33 -25
-91 -37 -130 -12 -38 -24 -81 -27 -95 -8 -42 -44 -162 -64 -218 -10 -30 -19
-65 -19 -78 0 -14 -8 -50 -19 -82 -20 -60 -48 -155 -76 -257 -9 -33 -21 -73
-25 -90 -34 -118 -106 -421 -101 -427 3 -3 224 -3 490 0 l484 7 18 105 c10 58
31 181 46 274 26 154 30 169 51 177 26 10 509 10 671 0 l105 -6 7 -30 c3 -16
12 -73 19 -125 6 -52 19 -126 27 -165 8 -38 20 -107 27 -153 l11 -83 510 1
c280 0 511 2 513 4 2 3 -14 60 -36 128 -22 67 -42 132 -45 143 -3 11 -26 88
-51 170 -42 141 -77 261 -128 435 -12 41 -38 129 -59 195 -20 66 -55 183 -77
260 -22 77 -68 232 -100 345 -33 113 -69 239 -81 280 -11 41 -37 131 -57 200
-70 243 -92 320 -126 455 -11 44 -32 119 -48 167 -16 47 -32 107 -35 132 -7
44 -9 46 -39 44 -17 -2 -319 -4 -672 -5z m50 -630 c2 -10 10 -45 16 -78 6 -33
20 -87 30 -120 10 -33 28 -107 40 -165 12 -58 39 -181 60 -275 60 -261 120
-543 120 -565 0 -27 -46 -31 -325 -28 l-240 3 3 35 c2 19 19 95 38 170 38 149
104 440 134 589 11 53 29 134 40 181 11 47 24 122 29 168 6 45 13 87 16 92 10
16 33 11 39 -7z"/>
<path d="M13530 19568 l0 -1478 476 0 476 0 -6 38 c-9 65 -16 802 -8 947 l7
140 88 -1 c62 -1 92 -5 103 -15 7 -8 23 -53 34 -99 11 -47 29 -116 40 -155 23
-84 57 -218 65 -260 10 -48 79 -188 133 -267 55 -82 200 -224 248 -244 18 -7
59 -29 92 -49 33 -19 69 -35 79 -35 10 0 43 -9 74 -19 70 -25 312 -45 439 -36
52 4 144 18 204 32 l109 26 -5 349 c-4 192 -9 352 -12 355 -4 4 -57 2 -119 -4
-86 -8 -130 -7 -192 3 -44 7 -85 13 -92 13 -44 2 -136 129 -176 242 -42 121
-89 287 -85 305 2 8 53 41 113 73 202 105 303 203 385 371 55 112 75 211 74
360 -1 221 -59 371 -203 523 -151 159 -339 250 -681 329 -90 21 -121 22 -615
25 -286 2 -638 4 -783 6 l-262 2 0 -1477z m1482 815 c74 -33 157 -93 172 -122
25 -50 37 -161 23 -214 -17 -62 -80 -148 -131 -179 -64 -38 -274 -67 -498 -68
l-106 0 -7 41 c-4 22 -4 160 0 306 l8 265 246 -4 c224 -4 250 -6 293 -25z"/>
<path d="M16535 20863 c-6 -144 2 -2777 8 -2778 1 0 472 1 1046 3 l1043 2 -6
31 c-3 17 -6 164 -6 326 l0 294 -512 -1 -513 -1 -9 264 c-5 146 -6 277 -2 291
l6 26 470 0 470 0 -2 266 -3 267 -467 -1 -468 0 0 102 c0 55 -3 179 -7 273
l-6 173 522 2 521 3 3 318 2 317 -1041 0 -1042 0 -7 -177z"/>
<path d="M19107 20634 c-4 -224 -7 -889 -7 -1478 l0 -1071 412 3 c921 5 1089
9 1187 26 158 28 349 79 416 111 17 8 55 25 85 38 31 13 62 30 70 38 8 8 35
27 60 42 122 75 248 182 317 270 51 63 183 266 183 281 0 2 18 43 39 89 23 49
51 136 67 204 24 107 27 142 32 363 5 271 -5 358 -54 505 -54 162 -190 400
-296 519 -41 47 -180 166 -192 166 -4 0 -48 26 -99 58 -168 105 -311 161 -547
214 -92 21 -120 22 -881 25 l-786 4 -6 -407z m1454 -380 c66 -12 99 -25 154
-60 88 -55 100 -66 158 -137 57 -70 78 -109 88 -162 4 -22 14 -58 22 -80 8
-22 21 -82 28 -133 15 -107 2 -251 -31 -348 -11 -32 -20 -64 -20 -73 0 -9 -16
-41 -35 -71 -18 -30 -42 -70 -51 -88 -23 -46 -133 -143 -204 -181 -46 -25 -80
-34 -152 -42 -142 -16 -438 -26 -449 -14 -10 10 -13 1216 -2 1340 l6 78 202
-6 c112 -4 240 -14 286 -23z"/>
<path d="M5805 15114 c-77 -8 -231 -35 -302 -55 -39 -10 -79 -19 -87 -19 -9 0
-27 -6 -39 -14 -12 -8 -60 -30 -107 -49 -73 -29 -294 -155 -310 -176 -3 -4
-32 -28 -65 -53 -33 -25 -81 -68 -106 -95 -62 -65 -197 -248 -216 -292 -18
-41 -27 -59 -55 -109 -11 -20 -28 -61 -38 -91 -10 -31 -30 -90 -45 -131 -52
-153 -69 -476 -36 -700 34 -234 129 -473 265 -669 117 -169 438 -446 566 -486
13 -4 36 -16 50 -25 66 -46 316 -102 535 -120 117 -10 167 -9 305 4 91 9 192
23 225 31 33 8 110 26 170 40 61 14 124 32 140 40 17 8 73 28 126 45 53 17
102 37 109 45 10 12 12 158 12 638 0 342 -3 644 -7 670 l-7 47 -40 0 c-23 0
-86 -7 -142 -15 -55 -8 -135 -19 -176 -25 -79 -11 -296 -30 -342 -30 l-28 0 0
-360 0 -360 -93 0 c-275 0 -428 67 -566 248 -55 71 -120 208 -143 300 -28 110
-30 344 -5 464 28 136 116 287 220 378 106 92 166 126 257 145 105 23 282 23
430 0 125 -18 185 -37 230 -70 19 -14 46 -25 61 -25 22 0 31 8 51 53 14 28 31
70 38 92 6 22 29 76 50 120 59 127 148 356 152 393 3 21 -7 27 -92 58 -219 81
-332 111 -515 139 -99 16 -353 27 -430 19z"/>
<path d="M8650 15113 c-80 -7 -229 -35 -286 -54 -34 -10 -75 -19 -92 -19 -17
0 -57 -13 -89 -29 -32 -16 -103 -50 -158 -77 -157 -76 -351 -227 -447 -346
-158 -198 -197 -268 -268 -478 -66 -193 -74 -251 -74 -525 0 -235 2 -258 28
-380 60 -281 189 -523 383 -718 141 -142 266 -231 413 -297 25 -11 61 -29 80
-39 106 -55 385 -112 615 -126 126 -7 326 11 430 39 28 8 82 19 120 26 66 11
101 24 255 99 129 62 187 99 341 218 129 99 273 309 379 551 92 212 141 558
111 773 -38 268 -73 384 -177 591 -166 331 -346 490 -761 673 -203 88 -563
142 -803 118z m316 -772 c165 -50 317 -201 395 -392 48 -117 62 -205 63 -384
1 -161 -11 -241 -49 -329 -8 -17 -16 -43 -19 -57 -7 -33 -65 -118 -129 -189
-80 -89 -165 -143 -267 -170 -53 -14 -268 -6 -340 13 -167 45 -324 231 -397
472 -49 164 -41 428 19 611 58 176 235 364 398 419 87 30 238 33 326 6z"/>
<path d="M18180 15113 c-97 -10 -367 -68 -419 -90 -18 -8 -61 -23 -94 -35
-101 -35 -264 -138 -402 -253 -33 -27 -70 -59 -84 -70 -77 -64 -256 -343 -301
-470 -60 -167 -71 -202 -80 -258 -5 -34 -14 -93 -21 -132 -17 -103 -5 -462 19
-590 25 -130 91 -318 143 -406 90 -155 243 -335 349 -412 25 -17 70 -51 99
-75 86 -68 218 -142 274 -153 28 -5 58 -15 66 -23 27 -24 85 -44 163 -56 40
-6 91 -17 113 -24 22 -8 117 -20 211 -26 189 -14 417 -2 497 25 23 8 69 21
102 29 107 26 166 44 178 54 7 5 23 13 37 17 48 15 237 114 282 148 68 51 210
181 262 239 114 126 239 334 273 453 53 183 71 278 81 424 23 338 -29 634
-155 878 -99 193 -216 345 -346 452 -222 181 -531 305 -860 346 -110 14 -297
18 -387 8z m325 -773 c65 -17 95 -33 165 -85 47 -35 100 -83 117 -107 38 -54
93 -146 93 -158 0 -4 16 -43 36 -85 20 -43 38 -96 40 -119 3 -22 9 -79 15
-126 7 -64 6 -118 -5 -220 -13 -117 -20 -146 -53 -220 -79 -176 -169 -280
-293 -342 -96 -47 -124 -55 -207 -63 -181 -17 -331 37 -456 163 -136 139 -176
218 -208 412 -39 234 -15 425 77 615 40 81 62 113 124 175 102 102 149 130
305 175 62 18 144 13 250 -15z"/>
<path d="M11870 15053 l-566 -3 -13 -88 c-7 -48 -30 -141 -52 -206 -21 -65
-39 -127 -39 -138 0 -10 -8 -44 -19 -76 -30 -91 -53 -174 -163 -582 -11 -41
-28 -99 -39 -128 -10 -29 -19 -62 -19 -73 0 -11 -18 -75 -40 -143 -22 -67 -40
-131 -40 -141 0 -22 -35 -142 -61 -207 -11 -26 -19 -62 -19 -80 -1 -18 -8 -51
-16 -73 -8 -22 -22 -65 -30 -95 -9 -30 -20 -59 -25 -64 -5 -6 -9 -24 -9 -40 0
-30 -34 -166 -49 -196 -5 -8 -14 -40 -20 -70 -16 -70 -48 -181 -71 -245 -10
-27 -21 -71 -24 -96 -3 -26 -17 -80 -31 -122 -14 -42 -25 -80 -25 -86 0 -8
145 -10 498 -9 l497 3 3 40 c2 22 15 103 29 180 14 77 33 185 42 240 l18 100
391 0 c214 0 393 -3 397 -7 4 -3 13 -54 21 -113 7 -59 19 -125 25 -148 6 -23
21 -100 33 -170 l22 -128 504 1 c277 0 506 3 509 5 2 3 -7 42 -21 88 -14 45
-49 156 -77 247 -28 91 -76 251 -106 355 -30 105 -62 213 -70 240 -8 28 -26
93 -40 145 -15 52 -32 113 -39 135 -7 22 -23 76 -36 120 -12 44 -30 105 -40
135 -10 30 -26 82 -35 115 -22 82 -42 152 -139 490 -25 88 -55 196 -67 240
-12 44 -37 132 -56 195 -20 63 -49 160 -65 215 -17 55 -38 132 -48 170 l-17
70 -99 0 c-54 0 -353 -1 -664 -2z m128 -706 c26 -68 67 -225 101 -387 47 -225
63 -298 81 -380 60 -263 82 -381 76 -388 -8 -7 -557 -4 -565 4 -3 2 12 75 32
162 153 644 182 780 203 935 8 62 17 118 20 126 8 23 25 -1 52 -72z"/>
<path d="M14203 15053 l-413 -3 0 -1389 c0 -763 -3 -1429 -6 -1479 l-7 -92
981 0 981 0 3 326 c2 239 0 328 -8 331 -7 2 -237 3 -513 1 l-501 -3 0 1158 0
1157 -52 -2 c-29 -2 -239 -4 -465 -5z"/>
<path d="M20364 15051 c-2 -2 -4 -669 -4 -1482 l0 -1478 461 2 460 2 -1 585
-1 585 521 -4 520 -3 0 282 0 283 -372 -7 c-205 -3 -438 -7 -518 -8 l-145 -3
-3 303 -2 303 560 -3 560 -3 0 327 0 328 -1016 -3 c-558 -1 -1017 -4 -1020 -6z"/>
<path d="M7318 9053 l-468 -3 0 -1483 0 -1482 495 3 495 2 0 1485 0 1485 -27
-2 c-16 -2 -238 -4 -495 -5z"/>
<path d="M11859 9053 l-986 -3 -6 -167 c-9 -216 -9 -2406 0 -2630 l6 -173 41
8 c23 4 491 7 1041 7 l1000 0 -4 330 c-1 182 -5 332 -7 334 -2 2 -232 0 -511
-6 -280 -5 -509 -9 -509 -9 -1 1 -3 132 -5 291 l-4 290 470 0 470 -1 3 274 2
275 -470 -5 -470 -5 0 206 c0 113 -3 237 -7 274 l-6 68 522 -2 521 -2 6 327 6
326 -58 -2 c-33 -2 -503 -4 -1045 -5z"/>
<path d="M4528 7568 c-2 -816 -3 -1483 -3 -1483 0 0 442 1 983 3 l982 3 0 330
0 331 -522 -4 -521 -3 7 385 c4 212 3 730 0 1153 l-7 767 -458 0 -458 0 -3
-1482z"/>
<path d="M8410 7857 c0 -657 -3 -1322 -7 -1478 l-6 -285 466 0 467 1 2 584 3
584 510 -2 510 -2 0 273 0 273 -507 -3 -506 -3 -7 53 c-3 29 -5 166 -3 303 l3
250 553 3 552 2 0 320 0 320 -1015 0 -1015 0 0 -1193z"/>
</g>
</svg>
